<mxfile host="Electron" modified="2025-09-16T07:36:01.052Z" agent="Mozilla/5.0 (Macintosh; Intel Mac OS X 10_15_7) AppleWebKit/537.36 (KHTML, like Gecko) draw.io/23.1.5 Chrome/120.0.6099.109 Electron/28.1.0 Safari/537.36" etag="LfPpxi9WOKkUxccOOfgc" version="23.1.5" type="device">
  <diagram name="第 1 页" id="IBOnjwrnAYKLyOff7ZLz">
    <mxGraphModel dx="781" dy="-396" grid="0" gridSize="10" guides="1" tooltips="1" connect="1" arrows="1" fold="1" page="0" pageScale="1" pageWidth="1169" pageHeight="827" math="1" shadow="0">
      <root>
        <mxCell id="0" />
        <mxCell id="1" parent="0" />
        <mxCell id="mv1mDVstSXBBRwC3u0m8-1" value="" style="endArrow=none;html=1;rounded=0;endFill=0;" parent="1" source="mv1mDVstSXBBRwC3u0m8-22" edge="1">
          <mxGeometry width="50" height="50" relative="1" as="geometry">
            <mxPoint x="219" y="916.6800000000001" as="sourcePoint" />
            <mxPoint x="779" y="916.6800000000001" as="targetPoint" />
          </mxGeometry>
        </mxCell>
        <mxCell id="mv1mDVstSXBBRwC3u0m8-2" value="" style="endArrow=classic;html=1;rounded=0;" parent="1" edge="1">
          <mxGeometry width="50" height="50" relative="1" as="geometry">
            <mxPoint x="220" y="1036.68" as="sourcePoint" />
            <mxPoint x="779" y="1036.68" as="targetPoint" />
          </mxGeometry>
        </mxCell>
        <mxCell id="mv1mDVstSXBBRwC3u0m8-4" value="" style="curved=1;endArrow=none;html=1;rounded=0;endFill=0;strokeWidth=2;strokeColor=#3333FF;" parent="1" edge="1">
          <mxGeometry width="50" height="50" relative="1" as="geometry">
            <mxPoint x="259" y="1036.68" as="sourcePoint" />
            <mxPoint x="779" y="906.6800000000001" as="targetPoint" />
            <Array as="points">
              <mxPoint x="299" y="986.6800000000001" />
              <mxPoint x="369" y="926.6800000000001" />
              <mxPoint x="479" y="886.6800000000001" />
              <mxPoint x="539" y="916.6800000000001" />
              <mxPoint x="589" y="936.6800000000001" />
              <mxPoint x="659" y="896.6800000000001" />
              <mxPoint x="699" y="926.6800000000001" />
              <mxPoint x="749" y="926.6800000000001" />
            </Array>
          </mxGeometry>
        </mxCell>
        <mxCell id="mv1mDVstSXBBRwC3u0m8-5" value="&lt;font style=&quot;font-size: 15px;&quot;&gt;$$t$$&lt;/font&gt;" style="text;html=1;align=center;verticalAlign=middle;resizable=0;points=[];autosize=1;strokeColor=none;fillColor=none;" parent="1" vertex="1">
          <mxGeometry x="754" y="1036.68" width="60" height="30" as="geometry" />
        </mxCell>
        <mxCell id="mv1mDVstSXBBRwC3u0m8-6" value="$$k$$" style="text;html=1;align=center;verticalAlign=middle;resizable=0;points=[];autosize=1;strokeColor=none;fillColor=none;" parent="1" vertex="1">
          <mxGeometry x="219" y="1036.68" width="60" height="30" as="geometry" />
        </mxCell>
        <mxCell id="mv1mDVstSXBBRwC3u0m8-7" value="" style="endArrow=none;html=1;rounded=0;" parent="1" edge="1">
          <mxGeometry width="50" height="50" relative="1" as="geometry">
            <mxPoint x="298.78" y="1036.68" as="sourcePoint" />
            <mxPoint x="298.78" y="1032.68" as="targetPoint" />
          </mxGeometry>
        </mxCell>
        <mxCell id="mv1mDVstSXBBRwC3u0m8-8" value="" style="endArrow=none;html=1;rounded=0;" parent="1" edge="1">
          <mxGeometry width="50" height="50" relative="1" as="geometry">
            <mxPoint x="339" y="1032.68" as="sourcePoint" />
            <mxPoint x="339" y="1036.68" as="targetPoint" />
          </mxGeometry>
        </mxCell>
        <mxCell id="mv1mDVstSXBBRwC3u0m8-9" value="" style="endArrow=none;html=1;rounded=0;" parent="1" edge="1">
          <mxGeometry width="50" height="50" relative="1" as="geometry">
            <mxPoint x="379" y="1032.68" as="sourcePoint" />
            <mxPoint x="379" y="1036.68" as="targetPoint" />
          </mxGeometry>
        </mxCell>
        <mxCell id="mv1mDVstSXBBRwC3u0m8-10" value="" style="endArrow=none;html=1;rounded=0;" parent="1" edge="1">
          <mxGeometry width="50" height="50" relative="1" as="geometry">
            <mxPoint x="417.89" y="1032.68" as="sourcePoint" />
            <mxPoint x="417.89" y="1036.68" as="targetPoint" />
          </mxGeometry>
        </mxCell>
        <mxCell id="mv1mDVstSXBBRwC3u0m8-11" value="" style="endArrow=none;html=1;rounded=0;" parent="1" edge="1">
          <mxGeometry width="50" height="50" relative="1" as="geometry">
            <mxPoint x="459.89" y="1032.68" as="sourcePoint" />
            <mxPoint x="459.89" y="1036.68" as="targetPoint" />
          </mxGeometry>
        </mxCell>
        <mxCell id="mv1mDVstSXBBRwC3u0m8-13" value="" style="endArrow=none;html=1;rounded=0;endFill=0;" parent="1" target="mv1mDVstSXBBRwC3u0m8-12" edge="1">
          <mxGeometry width="50" height="50" relative="1" as="geometry">
            <mxPoint x="219" y="916.6800000000001" as="sourcePoint" />
            <mxPoint x="779" y="916.6800000000001" as="targetPoint" />
          </mxGeometry>
        </mxCell>
        <mxCell id="mv1mDVstSXBBRwC3u0m8-12" value="" style="shape=waypoint;sketch=0;fillStyle=solid;size=6;pointerEvents=1;points=[];fillColor=none;resizable=0;rotatable=0;perimeter=centerPerimeter;snapToPoint=1;" parent="1" vertex="1">
          <mxGeometry x="289" y="906.6800000000001" width="20" height="20" as="geometry" />
        </mxCell>
        <mxCell id="mv1mDVstSXBBRwC3u0m8-15" value="" style="endArrow=none;html=1;rounded=0;endFill=0;" parent="1" source="mv1mDVstSXBBRwC3u0m8-12" target="mv1mDVstSXBBRwC3u0m8-14" edge="1">
          <mxGeometry width="50" height="50" relative="1" as="geometry">
            <mxPoint x="299" y="916.6800000000001" as="sourcePoint" />
            <mxPoint x="779" y="916.6800000000001" as="targetPoint" />
          </mxGeometry>
        </mxCell>
        <mxCell id="mv1mDVstSXBBRwC3u0m8-14" value="" style="shape=waypoint;sketch=0;fillStyle=solid;size=6;pointerEvents=1;points=[];fillColor=none;resizable=0;rotatable=0;perimeter=centerPerimeter;snapToPoint=1;" parent="1" vertex="1">
          <mxGeometry x="329" y="906.6800000000001" width="20" height="20" as="geometry" />
        </mxCell>
        <mxCell id="mv1mDVstSXBBRwC3u0m8-16" value="" style="shape=waypoint;sketch=0;fillStyle=solid;size=6;pointerEvents=1;points=[];fillColor=none;resizable=0;rotatable=0;perimeter=centerPerimeter;snapToPoint=1;" parent="1" vertex="1">
          <mxGeometry x="289" y="979.6800000000001" width="20" height="20" as="geometry" />
        </mxCell>
        <mxCell id="mv1mDVstSXBBRwC3u0m8-21" style="edgeStyle=orthogonalEdgeStyle;rounded=0;orthogonalLoop=1;jettySize=auto;html=1;endArrow=none;endFill=0;" parent="1" source="mv1mDVstSXBBRwC3u0m8-17" target="mv1mDVstSXBBRwC3u0m8-14" edge="1">
          <mxGeometry relative="1" as="geometry" />
        </mxCell>
        <mxCell id="mv1mDVstSXBBRwC3u0m8-17" value="" style="shape=waypoint;sketch=0;fillStyle=solid;size=6;pointerEvents=1;points=[];fillColor=none;resizable=0;rotatable=0;perimeter=centerPerimeter;snapToPoint=1;" parent="1" vertex="1">
          <mxGeometry x="329" y="942.6800000000001" width="20" height="20" as="geometry" />
        </mxCell>
        <mxCell id="mv1mDVstSXBBRwC3u0m8-20" style="edgeStyle=orthogonalEdgeStyle;rounded=0;orthogonalLoop=1;jettySize=auto;html=1;entryX=0.517;entryY=0.967;entryDx=0;entryDy=0;entryPerimeter=0;endArrow=none;endFill=0;" parent="1" source="mv1mDVstSXBBRwC3u0m8-16" target="mv1mDVstSXBBRwC3u0m8-12" edge="1">
          <mxGeometry relative="1" as="geometry" />
        </mxCell>
        <mxCell id="mv1mDVstSXBBRwC3u0m8-24" value="" style="endArrow=none;html=1;rounded=0;endFill=0;" parent="1" source="mv1mDVstSXBBRwC3u0m8-14" target="mv1mDVstSXBBRwC3u0m8-22" edge="1">
          <mxGeometry width="50" height="50" relative="1" as="geometry">
            <mxPoint x="339" y="916.6800000000001" as="sourcePoint" />
            <mxPoint x="779" y="916.6800000000001" as="targetPoint" />
          </mxGeometry>
        </mxCell>
        <mxCell id="mv1mDVstSXBBRwC3u0m8-22" value="" style="shape=waypoint;sketch=0;fillStyle=solid;size=6;pointerEvents=1;points=[];fillColor=none;resizable=0;rotatable=0;perimeter=centerPerimeter;snapToPoint=1;" parent="1" vertex="1">
          <mxGeometry x="649" y="906.6800000000001" width="20" height="20" as="geometry" />
        </mxCell>
        <mxCell id="mv1mDVstSXBBRwC3u0m8-25" value="" style="shape=waypoint;sketch=0;fillStyle=solid;size=6;pointerEvents=1;points=[];fillColor=none;resizable=0;rotatable=0;perimeter=centerPerimeter;snapToPoint=1;" parent="1" vertex="1">
          <mxGeometry x="649" y="894.6800000000001" width="20" height="20" as="geometry" />
        </mxCell>
        <mxCell id="mv1mDVstSXBBRwC3u0m8-26" style="edgeStyle=orthogonalEdgeStyle;rounded=0;orthogonalLoop=1;jettySize=auto;html=1;" parent="1" source="mv1mDVstSXBBRwC3u0m8-25" target="mv1mDVstSXBBRwC3u0m8-25" edge="1">
          <mxGeometry relative="1" as="geometry" />
        </mxCell>
        <mxCell id="mv1mDVstSXBBRwC3u0m8-27" style="edgeStyle=orthogonalEdgeStyle;rounded=0;orthogonalLoop=1;jettySize=auto;html=1;endArrow=none;endFill=0;" parent="1" target="mv1mDVstSXBBRwC3u0m8-25" edge="1">
          <mxGeometry relative="1" as="geometry">
            <mxPoint x="659" y="916.6800000000001" as="sourcePoint" />
            <mxPoint x="349" y="926.6800000000001" as="targetPoint" />
          </mxGeometry>
        </mxCell>
        <mxCell id="mv1mDVstSXBBRwC3u0m8-29" value="&lt;span style=&quot;box-sizing: border-box; border-color: currentcolor; caret-color: rgb(0, 21, 116); text-align: start; text-size-adjust: auto; margin-right: 0.0359em;&quot; class=&quot;mord mathnormal&quot;&gt;&lt;font style=&quot;font-size: 18px;&quot; face=&quot;Helvetica&quot;&gt;$$\omega$$&lt;/font&gt;&lt;/span&gt;" style="text;html=1;align=center;verticalAlign=middle;resizable=0;points=[];autosize=1;strokeColor=none;fillColor=none;" parent="1" vertex="1">
          <mxGeometry x="140" y="901.6800000000001" width="120" height="40" as="geometry" />
        </mxCell>
        <mxCell id="mv1mDVstSXBBRwC3u0m8-30" value="&lt;font style=&quot;font-size: 18px;&quot;&gt;$$y$$&lt;/font&gt;" style="text;html=1;align=center;verticalAlign=middle;resizable=0;points=[];autosize=1;strokeColor=none;fillColor=none;" parent="1" vertex="1">
          <mxGeometry x="165" y="1011.6800000000001" width="70" height="40" as="geometry" />
        </mxCell>
        <mxCell id="mv1mDVstSXBBRwC3u0m8-32" value="$$k+M$$" style="text;html=1;align=center;verticalAlign=middle;resizable=0;points=[];autosize=1;strokeColor=none;fillColor=none;" parent="1" vertex="1">
          <mxGeometry x="443" y="1037.68" width="70" height="30" as="geometry" />
        </mxCell>
        <mxCell id="mv1mDVstSXBBRwC3u0m8-33" value="" style="endArrow=none;html=1;rounded=0;" parent="1" edge="1">
          <mxGeometry width="50" height="50" relative="1" as="geometry">
            <mxPoint x="658.9100000000001" y="1032.68" as="sourcePoint" />
            <mxPoint x="658.9100000000001" y="1036.68" as="targetPoint" />
          </mxGeometry>
        </mxCell>
        <mxCell id="mv1mDVstSXBBRwC3u0m8-34" value="$$k+P$$" style="text;html=1;align=center;verticalAlign=middle;resizable=0;points=[];autosize=1;strokeColor=none;fillColor=none;" parent="1" vertex="1">
          <mxGeometry x="624" y="1035.68" width="70" height="30" as="geometry" />
        </mxCell>
        <mxCell id="mv1mDVstSXBBRwC3u0m8-35" value="" style="shape=curlyBracket;whiteSpace=wrap;html=1;rounded=1;flipH=1;labelPosition=right;verticalLabelPosition=middle;align=left;verticalAlign=middle;rotation=90;" parent="1" vertex="1">
          <mxGeometry x="348.93" y="946.49" width="21.25" height="201.12" as="geometry" />
        </mxCell>
        <mxCell id="_AdkwGGA8sEgtVKF6eY--1" value="控制时域" style="text;html=1;align=center;verticalAlign=middle;resizable=0;points=[];autosize=1;strokeColor=none;fillColor=none;" parent="1" vertex="1">
          <mxGeometry x="324.56" y="1050.68" width="70" height="30" as="geometry" />
        </mxCell>
        <mxCell id="_AdkwGGA8sEgtVKF6eY--2" value="" style="shape=curlyBracket;whiteSpace=wrap;html=1;rounded=1;flipH=1;labelPosition=right;verticalLabelPosition=middle;align=left;verticalAlign=middle;rotation=-90;" parent="1" vertex="1">
          <mxGeometry x="448.44" y="827" width="21.25" height="399.38" as="geometry" />
        </mxCell>
        <mxCell id="_AdkwGGA8sEgtVKF6eY--3" value="优化时域" style="text;html=1;align=center;verticalAlign=middle;resizable=0;points=[];autosize=1;strokeColor=none;fillColor=none;" parent="1" vertex="1">
          <mxGeometry x="424.06" y="993.6800000000001" width="70" height="30" as="geometry" />
        </mxCell>
        <mxCell id="_AdkwGGA8sEgtVKF6eY--8" value="$$\omega(k+1)$$" style="text;html=1;align=center;verticalAlign=middle;resizable=0;points=[];autosize=1;strokeColor=none;fillColor=none;" parent="1" vertex="1">
          <mxGeometry x="231" y="884.6800000000001" width="120" height="30" as="geometry" />
        </mxCell>
        <mxCell id="_AdkwGGA8sEgtVKF6eY--20" value="$$\tilde y_M(k+1\mid k)$$" style="text;html=1;align=center;verticalAlign=middle;resizable=0;points=[];autosize=1;strokeColor=none;fillColor=none;" parent="1" vertex="1">
          <mxGeometry x="261" y="986.6800000000001" width="160" height="30" as="geometry" />
        </mxCell>
        <mxCell id="_AdkwGGA8sEgtVKF6eY--21" value="&lt;span style=&quot;color: rgb(0, 0, 0); font-family: Helvetica; font-size: 12px; font-style: normal; font-variant-ligatures: normal; font-variant-caps: normal; font-weight: 400; letter-spacing: normal; orphans: 2; text-align: center; text-indent: 0px; text-transform: none; widows: 2; word-spacing: 0px; -webkit-text-stroke-width: 0px; background-color: rgb(255, 255, 255); text-decoration-thickness: initial; text-decoration-style: initial; text-decoration-color: initial; float: none; display: inline !important;&quot;&gt;$$\tilde y_M(k+2\mid k)$$&lt;/span&gt;" style="text;whiteSpace=wrap;html=1;" parent="1" vertex="1">
          <mxGeometry x="348.93" y="936.6800000000001" width="85" height="23" as="geometry" />
        </mxCell>
        <mxCell id="_AdkwGGA8sEgtVKF6eY--22" value="&lt;span style=&quot;color: rgb(0, 0, 0); font-family: Helvetica; font-size: 12px; font-style: normal; font-variant-ligatures: normal; font-variant-caps: normal; font-weight: 400; letter-spacing: normal; orphans: 2; text-align: center; text-indent: 0px; text-transform: none; widows: 2; word-spacing: 0px; -webkit-text-stroke-width: 0px; background-color: rgb(255, 255, 255); text-decoration-thickness: initial; text-decoration-style: initial; text-decoration-color: initial; float: none; display: inline !important;&quot;&gt;$$\tilde y_M(k+P\mid k)$$&lt;/span&gt;" style="text;whiteSpace=wrap;html=1;" parent="1" vertex="1">
          <mxGeometry x="620" y="866.6800000000001" width="117" height="40" as="geometry" />
        </mxCell>
        <mxCell id="_AdkwGGA8sEgtVKF6eY--23" value="$$\omega(k+2)$$" style="text;html=1;align=center;verticalAlign=middle;resizable=0;points=[];autosize=1;strokeColor=none;fillColor=none;" parent="1" vertex="1">
          <mxGeometry x="289" y="884.6800000000001" width="120" height="30" as="geometry" />
        </mxCell>
        <mxCell id="_AdkwGGA8sEgtVKF6eY--24" value="$$\omega(k+P)$$" style="text;html=1;align=center;verticalAlign=middle;resizable=0;points=[];autosize=1;strokeColor=none;fillColor=none;" parent="1" vertex="1">
          <mxGeometry x="596" y="918.6800000000001" width="120" height="30" as="geometry" />
        </mxCell>
        <mxCell id="D2_ZWdXsVag47-IFODdU-1" value="&lt;font style=&quot;font-size: 18px;&quot;&gt;$$u$$&lt;/font&gt;" style="text;html=1;align=center;verticalAlign=middle;resizable=0;points=[];autosize=1;strokeColor=none;fillColor=none;" vertex="1" parent="1">
          <mxGeometry x="165" y="1165.68" width="70" height="40" as="geometry" />
        </mxCell>
        <mxCell id="D2_ZWdXsVag47-IFODdU-2" value="&lt;font style=&quot;font-size: 12px;&quot;&gt;$$\Delta u(k)$$&lt;/font&gt;" style="text;html=1;align=center;verticalAlign=middle;resizable=0;points=[];autosize=1;strokeColor=none;fillColor=none;" vertex="1" parent="1">
          <mxGeometry x="225" y="1153.6100000000001" width="110" height="30" as="geometry" />
        </mxCell>
        <mxCell id="D2_ZWdXsVag47-IFODdU-3" value="&lt;font style=&quot;font-size: 12px;&quot;&gt;$$\Delta u(k+1)$$&lt;/font&gt;" style="text;html=1;align=center;verticalAlign=middle;resizable=0;points=[];autosize=1;strokeColor=none;fillColor=none;" vertex="1" parent="1">
          <mxGeometry x="272.94" y="1115.68" width="120" height="30" as="geometry" />
        </mxCell>
        <mxCell id="D2_ZWdXsVag47-IFODdU-4" value="&lt;font style=&quot;font-size: 12px;&quot;&gt;$$\Delta u(k+M-1)$$&lt;/font&gt;" style="text;html=1;align=center;verticalAlign=middle;resizable=0;points=[];autosize=1;strokeColor=none;fillColor=none;" vertex="1" parent="1">
          <mxGeometry x="409" y="1153.6100000000001" width="130" height="30" as="geometry" />
        </mxCell>
        <mxCell id="D2_ZWdXsVag47-IFODdU-5" value="&lt;font style=&quot;font-size: 12px;&quot; color=&quot;#660000&quot;&gt;$$u(k)$$&lt;/font&gt;" style="text;html=1;align=center;verticalAlign=middle;resizable=0;points=[];autosize=1;strokeColor=none;fillColor=none;" vertex="1" parent="1">
          <mxGeometry x="242" y="1115.6800000000003" width="70" height="30" as="geometry" />
        </mxCell>
        <mxCell id="D2_ZWdXsVag47-IFODdU-6" value="&lt;font style=&quot;font-size: 12px;&quot; color=&quot;#660000&quot;&gt;$$u(k+1)$$&lt;/font&gt;" style="text;html=1;align=center;verticalAlign=middle;resizable=0;points=[];autosize=1;strokeColor=none;fillColor=none;" vertex="1" parent="1">
          <mxGeometry x="272" y="1081.6800000000003" width="80" height="30" as="geometry" />
        </mxCell>
        <mxCell id="D2_ZWdXsVag47-IFODdU-7" value="&lt;font style=&quot;font-size: 12px;&quot; color=&quot;#660000&quot;&gt;$$u(k+i), i \geq M-1$$&lt;/font&gt;" style="text;html=1;align=center;verticalAlign=middle;resizable=0;points=[];autosize=1;strokeColor=none;fillColor=none;" vertex="1" parent="1">
          <mxGeometry x="589" y="1153.6100000000004" width="140" height="30" as="geometry" />
        </mxCell>
        <mxCell id="D2_ZWdXsVag47-IFODdU-9" value="" style="endArrow=none;html=1;rounded=0;endFill=0;strokeWidth=2;strokeColor=#FF0000;" edge="1" parent="1">
          <mxGeometry width="50" height="50" relative="1" as="geometry">
            <mxPoint x="219.5" y="1187.68" as="sourcePoint" />
            <mxPoint x="779" y="1187.68" as="targetPoint" />
            <Array as="points">
              <mxPoint x="259.5" y="1187.68" />
              <mxPoint x="259.5" y="1147.68" />
              <mxPoint x="299.5" y="1147.68" />
              <mxPoint x="299.5" y="1107.68" />
              <mxPoint x="339.5" y="1107.68" />
              <mxPoint x="340" y="1081.68" />
              <mxPoint x="360" y="1081.68" />
              <mxPoint x="380" y="1081.68" />
              <mxPoint x="380" y="1121.68" />
              <mxPoint x="400" y="1121.68" />
              <mxPoint x="420" y="1121.68" />
              <mxPoint x="419.5" y="1187.68" />
            </Array>
          </mxGeometry>
        </mxCell>
      </root>
    </mxGraphModel>
  </diagram>
</mxfile>
